<?xml version="1.0" encoding="UTF-8"?>
<svg id="Layer_3" data-name="Layer 3" xmlns="http://www.w3.org/2000/svg" viewBox="0 0 519.1 697.64">
  <defs>
    <style>
      .cls-1 {
        fill: #dbff5a;
      }
    </style>
  </defs>
  <g id="Layer_1" data-name="Layer 1">
    <g>
      <path class="cls-1" d="M246.69,622.08l-20.09,20.09h-55.93l-20.1-20.09v-214.34l20.1-20.1h55.93l20.09,20.1v214.34ZM189.42,415.1l-6.7,6.7v186.21l6.7,6.7h18.42l6.7-6.7v-186.21l-6.7-6.7h-18.42Z"/>
      <path class="cls-1" d="M270.08,387.64h74.35l20.09,20.1v105.83l-17.75,17.75,17.75,110.85h-28.8l-19.76-108.51h-13.73v108.51h-32.15v-254.53ZM332.37,500.84v-79.71l-6.7-6.7h-23.44v93.1h23.44l6.7-6.7Z"/>
      <path class="cls-1" d="M95.45,241.01l-6.36,65.64h-32.15l30.48-254.53h46.22l31.15,254.53h-33.49l-6.36-65.64h-29.47ZM110.19,85.28l-12.39,128.27h24.78l-12.39-128.27Z"/>
      <path class="cls-1" d="M180.19,306.66V52.13h32.15v227.07h42.53v27.46h-74.68Z"/>
      <path class="cls-1" d="M266.97,306.66V52.13h32.15v227.07h65.4v27.46h-97.55Z"/>
      <path class="cls-1" d="M0,0v697.64h519.1V0H0ZM489.83,668.36H29.28v-305.81h335.24v-27.46H29.28V29.28h460.55v639.08Z"/>
      <polygon class="cls-1" points="445.1 609.93 445.1 52.13 417.75 52.13 397.82 52.13 386.54 52.13 372.77 128.05 403.94 128.05 412.54 80.74 412.95 80.75 412.95 609.93 390.54 609.93 390.54 642.17 412.95 642.17 445.1 642.17 467.23 642.17 467.23 609.93 445.1 609.93"/>
      <polygon class="cls-1" points="122.98 415.1 136.5 401.65 136.5 387.64 58.13 387.64 58.13 642.17 90.28 642.17 90.28 529.97 131.81 529.97 131.81 502.51 90.28 502.51 90.28 415.1 122.98 415.1"/>
    </g>
  </g>
</svg>